<svg version="1.1" xmlns="http://www.w3.org/2000/svg" viewBox="0 0 346 389.7142857142858" width="346" height="389.7142857142858" filter="invert(93%) hue-rotate(180deg)">
  <!-- svg-source:excalidraw -->
  
  <defs>
    <style class="style-fonts">
      
    </style>
    
  </defs>
  <g stroke-linecap="round" transform="translate(10 10) rotate(0 163 148.5)"><path d="M38.83 52.31 C38.83 52.31, 38.83 52.31, 38.83 52.31 M38.83 52.31 C38.83 52.31, 38.83 52.31, 38.83 52.31 M10.1 97.56 C29.15 75.65, 48.2 53.73, 73.08 25.1 M10.1 97.56 C25.99 79.28, 41.88 61, 73.08 25.1 M4.33 116.39 C31.93 84.64, 59.54 52.88, 91.59 16.01 M4.33 116.39 C34.47 81.71, 64.62 47.03, 91.59 16.01 M1.84 131.45 C28.14 101.2, 54.44 70.94, 108.12 9.19 M1.84 131.45 C27.73 101.67, 53.62 71.89, 108.12 9.19 M0.66 145 C46.35 92.44, 92.04 39.88, 122.03 5.38 M0.66 145 C32.33 108.57, 64 72.13, 122.03 5.38 M0.79 157.04 C38.99 113.1, 77.18 69.17, 134.63 3.08 M0.79 157.04 C49.69 100.8, 98.58 44.55, 134.63 3.08 M1.58 168.33 C41.18 122.78, 80.78 77.23, 146.57 1.54 M1.58 168.33 C46.86 116.24, 92.13 64.16, 146.57 1.54 M3.68 178.1 C45.47 130.03, 87.26 81.96, 157.86 0.75 M3.68 178.1 C46.77 128.53, 89.86 78.97, 157.86 0.75 M5.78 187.88 C47.88 139.45, 89.98 91.02, 168.49 0.71 M5.78 187.88 C38.53 150.21, 71.28 112.54, 168.49 0.71 M9.2 196.15 C73.44 122.24, 137.69 48.34, 178.46 1.43 M9.2 196.15 C43.52 156.67, 77.84 117.19, 178.46 1.43 M11.96 205.17 C74.81 132.86, 137.67 60.55, 188.44 2.15 M11.96 205.17 C70.98 137.27, 130 69.37, 188.44 2.15 M16.03 212.68 C53.52 169.54, 91.02 126.41, 197.75 3.63 M16.03 212.68 C53.55 169.52, 91.07 126.35, 197.75 3.63 M20.09 220.2 C68.25 164.8, 116.41 109.4, 206.42 5.86 M20.09 220.2 C80.28 150.95, 140.48 81.71, 206.42 5.86 M24.82 226.95 C75.65 168.48, 126.49 110, 215.08 8.09 M24.82 226.95 C85.08 157.63, 145.34 88.31, 215.08 8.09 M29.55 233.71 C73.87 182.72, 118.2 131.73, 223.08 11.07 M29.55 233.71 C84.3 170.72, 139.06 107.73, 223.08 11.07 M34.93 239.71 C93.4 172.45, 151.88 105.18, 231.09 14.06 M34.93 239.71 C76.95 191.37, 118.97 143.03, 231.09 14.06 M40.31 245.72 C80.38 199.62, 120.46 153.52, 239.1 17.04 M40.31 245.72 C106.84 169.18, 173.38 92.64, 239.1 17.04 M45.69 251.72 C117.06 169.62, 188.42 87.53, 246.44 20.78 M45.69 251.72 C112.82 174.49, 179.95 97.27, 246.44 20.78 M51.73 256.97 C108.16 192.06, 164.58 127.14, 253.14 25.27 M51.73 256.97 C112.88 186.62, 174.03 116.27, 253.14 25.27 M57.77 262.22 C121.62 188.76, 185.48 115.3, 259.83 29.77 M57.77 262.22 C132 176.82, 206.23 91.43, 259.83 29.77 M64.46 266.71 C112.77 211.13, 161.09 155.56, 266.53 34.26 M64.46 266.71 C108.84 215.66, 153.22 164.6, 266.53 34.26 M71.15 271.2 C147.27 183.64, 223.39 96.08, 273.22 38.75 M71.15 271.2 C143.47 188.01, 215.79 104.81, 273.22 38.75 M77.85 275.7 C122.77 224.02, 167.69 172.34, 279.26 44 M77.85 275.7 C121.63 225.33, 165.42 174.96, 279.26 44 M85.2 279.44 C155.97 198.03, 226.73 116.62, 284.64 50.01 M85.2 279.44 C126.19 232.28, 167.18 185.13, 284.64 50.01 M93.2 282.42 C141.81 226.51, 190.41 170.59, 290.02 56.01 M93.2 282.42 C139.7 228.93, 186.19 175.45, 290.02 56.01 M100.55 286.16 C176.16 199.18, 251.77 112.2, 295.4 62.01 M100.55 286.16 C171.56 204.48, 242.56 122.8, 295.4 62.01 M109.21 288.39 C165.75 223.35, 222.29 158.32, 300.13 68.77 M109.21 288.39 C170.34 218.07, 231.46 147.76, 300.13 68.77 M117.22 291.38 C161.18 240.81, 205.13 190.24, 304.85 75.53 M117.22 291.38 C181.65 217.26, 246.08 143.14, 304.85 75.53 M126.54 292.85 C167.93 245.23, 209.33 197.61, 309.58 82.29 M126.54 292.85 C184.73 225.91, 242.92 158.97, 309.58 82.29 M135.2 295.08 C201.29 219.05, 267.39 143.01, 312.99 90.55 M135.2 295.08 C171.83 252.94, 208.46 210.8, 312.99 90.55 M145.17 295.8 C190.19 244.01, 235.22 192.22, 316.41 98.82 M145.17 295.8 C210.73 220.39, 276.28 144.98, 316.41 98.82 M154.49 297.27 C203.93 240.4, 253.37 183.52, 319.82 107.09 M154.49 297.27 C199.23 245.81, 243.96 194.35, 319.82 107.09 M165.12 297.24 C212.78 242.42, 260.43 187.6, 322.58 116.11 M165.12 297.24 C208.11 247.78, 251.11 198.33, 322.58 116.11 M176.41 296.45 C211.26 256.36, 246.11 216.27, 324.68 125.89 M176.41 296.45 C207.54 260.64, 238.67 224.83, 324.68 125.89 M187.69 295.66 C216.89 262.08, 246.08 228.5, 325.47 137.17 M187.69 295.66 C222.32 255.83, 256.94 216.01, 325.47 137.17 M200.29 293.36 C227.87 261.64, 255.44 229.92, 326.26 148.46 M200.29 293.36 C244.6 242.39, 288.91 191.42, 326.26 148.46 M213.55 290.31 C250.5 247.8, 287.45 205.3, 326.39 160.5 M213.55 290.31 C257 240.33, 300.45 190.35, 326.39 160.5 M229.43 284.24 C249.14 261.56, 268.86 238.88, 323.24 176.31 M229.43 284.24 C264.92 243.41, 300.41 202.58, 323.24 176.31 M246.62 276.66 C272.11 247.33, 297.6 218, 318.13 194.39 M246.62 276.66 C264.24 256.38, 281.86 236.11, 318.13 194.39 M273.65 257.75 C285.88 243.68, 298.12 229.6, 305.14 221.53 M273.65 257.75 C280.78 249.55, 287.92 241.34, 305.14 221.53 M47.48 253.28 C47.48 253.28, 47.48 253.28, 47.48 253.28 M47.48 253.28 C47.48 253.28, 47.48 253.28, 47.48 253.28 M91.97 281.36 C73.93 265.67, 55.9 249.99, 21.03 219.69 M91.97 281.36 C64.43 257.41, 36.89 233.47, 21.03 219.69 M113.07 289.1 C89.1 268.26, 65.14 247.43, 11.19 200.53 M113.07 289.1 C75.97 256.84, 38.86 224.59, 11.19 200.53 M131.15 294.21 C89.84 258.3, 48.54 222.4, 5.11 184.65 M131.15 294.21 C104.73 271.24, 78.3 248.27, 5.11 184.65 M144.7 295.39 C108.93 264.29, 73.15 233.2, 2.06 171.39 M144.7 295.39 C89.32 247.25, 33.95 199.11, 2.06 171.39 M158.25 296.57 C118.87 262.33, 79.48 228.1, 0.52 159.45 M158.25 296.57 C96.44 242.83, 34.62 189.1, 0.52 159.45 M170.29 296.44 C117.15 250.24, 64 204.04, -0.27 148.17 M170.29 296.44 C123.32 255.6, 76.35 214.77, -0.27 148.17 M181.58 295.65 C130.65 251.37, 79.72 207.1, 0.45 138.19 M181.58 295.65 C128.93 249.88, 76.28 204.11, 0.45 138.19 M192.11 294.2 C139.56 248.52, 87.01 202.84, 1.92 128.87 M192.11 294.2 C150.04 257.63, 107.96 221.06, 1.92 128.87 M202.64 292.76 C162.08 257.5, 121.52 222.24, 3.4 119.56 M202.64 292.76 C159.52 255.27, 116.4 217.79, 3.4 119.56 M211.66 290 C134.61 223.01, 57.55 156.03, 5.63 110.89 M211.66 290 C144.5 231.61, 77.33 173.23, 5.63 110.89 M220.68 287.24 C174.16 246.8, 127.64 206.36, 7.86 102.23 M220.68 287.24 C149.54 225.4, 78.4 163.56, 7.86 102.23 M228.95 283.83 C162.87 226.39, 96.8 168.95, 11.6 94.88 M228.95 283.83 C164.91 228.15, 100.86 172.48, 11.6 94.88 M237.22 280.41 C181.96 232.38, 126.7 184.35, 14.58 86.88 M237.22 280.41 C156.18 209.97, 75.14 139.52, 14.58 86.88 M244.73 276.34 C168.66 210.22, 92.59 144.09, 18.32 79.53 M244.73 276.34 C168.46 210.04, 92.19 143.74, 18.32 79.53 M252.24 272.28 C198.4 225.46, 144.55 178.65, 22.81 72.83 M252.24 272.28 C187.98 216.41, 123.72 160.55, 22.81 72.83 M259.76 268.21 C210.97 225.8, 162.18 183.39, 27.31 66.14 M259.76 268.21 C197.7 214.26, 135.65 160.32, 27.31 66.14 M265.76 262.82 C209.62 214.02, 153.47 165.21, 32.55 60.1 M265.76 262.82 C216.38 219.9, 167.01 176.98, 32.55 60.1 M272.52 258.1 C217.13 209.95, 161.74 161.8, 37.8 54.06 M272.52 258.1 C224.65 216.49, 176.78 174.88, 37.8 54.06 M278.52 252.72 C196.28 181.23, 114.04 109.74, 43.05 48.03 M278.52 252.72 C197.81 182.55, 117.09 112.39, 43.05 48.03 M284.52 247.34 C191.54 166.5, 98.55 85.67, 49.06 42.65 M284.52 247.34 C220.59 191.76, 156.66 136.18, 49.06 42.65 M289.77 241.3 C204.46 167.14, 119.14 92.97, 55.06 37.26 M289.77 241.3 C240.06 198.08, 190.35 154.87, 55.06 37.26 M295.02 235.26 C239.63 187.11, 184.25 138.96, 61.82 32.54 M295.02 235.26 C225.51 174.83, 155.99 114.4, 61.82 32.54 M300.27 229.22 C229.15 167.39, 158.02 105.57, 68.57 27.81 M300.27 229.22 C251.15 186.52, 202.03 143.82, 68.57 27.81 M304.76 222.53 C216.42 145.74, 128.09 68.94, 75.33 23.09 M304.76 222.53 C232.1 159.36, 159.43 96.19, 75.33 23.09 M308.5 215.18 C235.48 151.7, 162.45 88.22, 82.84 19.02 M308.5 215.18 C242.76 158.03, 177.02 100.88, 82.84 19.02 M312.24 207.83 C261.43 163.66, 210.61 119.49, 90.36 14.95 M312.24 207.83 C253.39 156.67, 194.55 105.52, 90.36 14.95 M315.98 200.48 C233.91 129.14, 151.85 57.8, 98.62 11.53 M315.98 200.48 C261.12 152.79, 206.26 105.1, 98.62 11.53 M318.97 192.47 C270.09 149.99, 221.22 107.51, 107.65 8.78 M318.97 192.47 C258.53 139.94, 198.09 87.4, 107.65 8.78 M321.19 183.81 C248.92 120.99, 176.65 58.16, 116.67 6.02 M321.19 183.81 C269.55 138.92, 217.91 94.03, 116.67 6.02 M323.42 175.15 C279.31 136.8, 235.19 98.45, 126.45 3.92 M323.42 175.15 C278.86 136.41, 234.31 97.68, 126.45 3.92 M324.9 165.83 C257.77 107.48, 190.64 49.12, 136.22 1.82 M324.9 165.83 C267.61 116.03, 210.33 66.24, 136.22 1.82 M325.62 155.86 C270.24 107.72, 214.87 59.58, 146.75 0.37 M325.62 155.86 C265.22 103.35, 204.81 50.84, 146.75 0.37 M326.34 145.88 C291 115.17, 255.67 84.45, 158.04 -0.42 M326.34 145.88 C263.66 91.4, 200.98 36.91, 158.04 -0.42 M325.55 134.6 C269.72 86.06, 213.88 37.53, 170.84 0.11 M325.55 134.6 C267.22 83.9, 208.9 33.19, 170.84 0.11 M324.01 122.66 C273.56 78.8, 223.11 34.94, 184.39 1.28 M324.01 122.66 C284.87 88.64, 245.74 54.62, 184.39 1.28 M320.95 109.4 C281.71 75.29, 242.47 41.18, 198.69 3.12 M320.95 109.4 C283.63 76.96, 246.31 44.51, 198.69 3.12 M314.88 93.52 C277.74 61.24, 240.6 28.95, 216.01 7.58 M314.88 93.52 C294.78 76.05, 274.69 58.58, 216.01 7.58 M305.04 74.36 C284.44 56.46, 263.85 38.56, 237.11 15.32 M305.04 74.36 C278.65 51.43, 252.27 28.49, 237.11 15.32" stroke="#b2f2bb" stroke-width="1" fill="none"></path><path d="M326 148.5 C326 152.38, 325.83 156.28, 325.5 160.15 C325.16 164.02, 324.66 167.89, 323.99 171.73 C323.33 175.57, 322.49 179.39, 321.5 183.17 C320.5 186.94, 319.34 190.7, 318.02 194.39 C316.7 198.08, 315.22 201.74, 313.59 205.33 C311.96 208.92, 310.17 212.46, 308.23 215.92 C306.3 219.38, 304.21 222.78, 301.98 226.09 C299.75 229.4, 297.38 232.64, 294.87 235.79 C292.36 238.93, 289.71 241.99, 286.95 244.94 C284.18 247.9, 281.27 250.76, 278.26 253.51 C275.24 256.25, 272.1 258.9, 268.86 261.42 C265.62 263.94, 262.26 266.36, 258.81 268.64 C255.36 270.92, 251.8 273.09, 248.17 275.12 C244.53 277.15, 240.8 279.05, 237 280.81 C233.2 282.58, 229.32 284.21, 225.38 285.7 C221.44 287.18, 217.42 288.53, 213.37 289.73 C209.32 290.93, 205.2 291.99, 201.05 292.9 C196.91 293.8, 192.71 294.56, 188.5 295.17 C184.29 295.78, 180.04 296.24, 175.79 296.54 C171.54 296.85, 167.26 297, 163 297 C158.74 297, 154.46 296.85, 150.21 296.54 C145.96 296.24, 141.71 295.78, 137.5 295.17 C133.29 294.56, 129.09 293.8, 124.95 292.9 C120.8 291.99, 116.68 290.93, 112.63 289.73 C108.58 288.53, 104.56 287.18, 100.62 285.7 C96.68 284.21, 92.8 282.58, 89 280.81 C85.2 279.05, 81.47 277.15, 77.83 275.12 C74.2 273.09, 70.64 270.92, 67.19 268.64 C63.74 266.36, 60.38 263.94, 57.14 261.42 C53.9 258.9, 50.76 256.25, 47.74 253.51 C44.73 250.76, 41.82 247.9, 39.05 244.94 C36.29 241.99, 33.64 238.93, 31.13 235.79 C28.62 232.64, 26.25 229.4, 24.02 226.09 C21.79 222.78, 19.7 219.38, 17.77 215.92 C15.83 212.46, 14.04 208.92, 12.41 205.33 C10.78 201.74, 9.3 198.08, 7.98 194.39 C6.66 190.7, 5.5 186.94, 4.5 183.17 C3.51 179.39, 2.67 175.57, 2.01 171.73 C1.34 167.89, 0.84 164.02, 0.5 160.15 C0.17 156.28, 0 152.38, 0 148.5 C0 144.62, 0.17 140.72, 0.5 136.85 C0.84 132.98, 1.34 129.11, 2.01 125.27 C2.67 121.43, 3.51 117.61, 4.5 113.83 C5.5 110.06, 6.66 106.3, 7.98 102.61 C9.3 98.92, 10.78 95.26, 12.41 91.67 C14.04 88.08, 15.83 84.54, 17.77 81.08 C19.7 77.62, 21.79 74.22, 24.02 70.91 C26.25 67.6, 28.62 64.36, 31.13 61.21 C33.64 58.07, 36.29 55.01, 39.05 52.06 C41.82 49.1, 44.73 46.24, 47.74 43.49 C50.76 40.75, 53.9 38.1, 57.14 35.58 C60.38 33.06, 63.74 30.64, 67.19 28.36 C70.64 26.08, 74.2 23.91, 77.83 21.88 C81.47 19.85, 85.2 17.95, 89 16.19 C92.8 14.42, 96.68 12.79, 100.62 11.3 C104.56 9.82, 108.58 8.47, 112.63 7.27 C116.68 6.07, 120.8 5.01, 124.95 4.1 C129.09 3.2, 133.29 2.44, 137.5 1.83 C141.71 1.22, 145.96 0.76, 150.21 0.46 C154.46 0.15, 158.74 0, 163 0 C167.26 0, 171.54 0.15, 175.79 0.46 C180.04 0.76, 184.29 1.22, 188.5 1.83 C192.71 2.44, 196.91 3.2, 201.05 4.1 C205.2 5.01, 209.32 6.07, 213.37 7.27 C217.42 8.47, 221.44 9.82, 225.38 11.3 C229.32 12.79, 233.2 14.42, 237 16.19 C240.8 17.95, 244.53 19.85, 248.17 21.88 C251.8 23.91, 255.36 26.08, 258.81 28.36 C262.26 30.64, 265.62 33.06, 268.86 35.58 C272.1 38.1, 275.24 40.75, 278.26 43.49 C281.27 46.24, 284.18 49.1, 286.95 52.06 C289.71 55.01, 292.36 58.07, 294.87 61.21 C297.38 64.36, 299.75 67.6, 301.98 70.91 C304.21 74.22, 306.3 77.62, 308.23 81.08 C310.17 84.54, 311.96 88.08, 313.59 91.67 C315.22 95.26, 316.7 98.92, 318.02 102.61 C319.34 106.3, 320.5 110.06, 321.5 113.83 C322.49 117.61, 323.33 121.43, 323.99 125.27 C324.66 129.11, 325.16 132.98, 325.5 136.85 C325.83 140.72, 326 144.62, 326 148.5" stroke="#2f9e44" stroke-width="2" fill="none"></path></g><g transform="translate(12 128) rotate(0 160.5 -20.5)" stroke="none"><path fill="#2f9e44" d="M -4.38,-2.62 Q -4.38,-2.62 -3.59,-4.11 -2.80,-5.59 -1.60,-7.65 -0.39,-9.72 0.99,-12.02 2.39,-14.32 4.29,-16.89 6.19,-19.47 8.25,-21.81 10.30,-24.16 12.01,-26.04 13.72,-27.92 16.37,-30.09 19.02,-32.26 21.23,-33.09 23.43,-33.91 26.13,-34.35 28.84,-34.80 34.35,-34.43 39.86,-34.06 42.00,-33.96 44.14,-33.85 47.33,-32.74 50.53,-31.63 52.70,-30.56 54.86,-29.49 56.96,-27.97 59.06,-26.45 60.80,-24.92 62.55,-23.39 65.33,-20.95 68.10,-18.50 69.91,-16.32 71.71,-14.13 73.65,-12.28 75.59,-10.44 77.36,-8.28 79.13,-6.12 81.02,-3.42 82.90,-0.72 83.15,-0.07 83.39,0.56 83.72,1.30 84.05,2.04 84.19,2.83 84.33,3.62 84.28,4.43 84.23,5.23 83.99,6.00 83.75,6.77 83.33,7.46 82.91,8.15 82.33,8.72 81.76,9.28 81.07,9.70 80.38,10.11 79.61,10.35 78.84,10.59 78.03,10.63 77.23,10.68 76.43,10.53 75.64,10.38 74.91,10.05 74.17,9.71 73.54,9.22 72.91,8.72 72.41,8.08 71.92,7.44 71.72,4.36 71.53,1.29 72.97,-1.62 74.42,-4.55 75.99,-7.60 77.56,-10.66 78.82,-13.54 80.07,-16.43 82.76,-20.76 85.45,-25.08 87.03,-27.81 88.62,-30.53 91.43,-33.28 94.24,-36.03 96.49,-37.98 98.74,-39.93 101.43,-41.56 104.11,-43.18 106.71,-44.46 109.31,-45.73 112.98,-46.81 116.64,-47.88 119.97,-48.64 123.30,-49.40 127.88,-49.52 132.46,-49.63 135.47,-49.84 138.48,-50.04 141.91,-49.54 145.35,-49.04 148.10,-48.25 150.85,-47.47 153.64,-46.19 156.42,-44.92 159.15,-42.63 161.87,-40.35 164.01,-37.39 166.15,-34.44 167.67,-31.29 169.20,-28.14 170.40,-25.07 171.60,-21.99 172.48,-19.12 173.36,-16.26 174.36,-13.57 175.36,-10.89 175.42,-10.28 175.49,-9.66 175.40,-9.05 175.32,-8.44 175.09,-7.87 174.87,-7.29 174.51,-6.79 174.15,-6.28 173.68,-5.88 173.21,-5.48 172.66,-5.20 172.11,-4.92 171.51,-4.78 170.90,-4.64 170.29,-4.65 169.67,-4.66 169.07,-4.82 168.47,-4.98 167.93,-5.27 167.39,-5.57 166.93,-5.98 166.48,-6.40 166.13,-6.91 165.79,-7.43 165.58,-8.01 165.37,-8.59 165.83,-12.29 166.30,-15.99 167.09,-19.03 167.89,-22.07 170.67,-26.28 173.44,-30.49 176.44,-32.90 179.44,-35.31 181.18,-36.96 182.92,-38.60 187.11,-40.22 191.30,-41.83 194.71,-42.67 198.12,-43.51 201.20,-43.93 204.28,-44.36 207.37,-44.52 210.46,-44.68 213.72,-44.44 216.99,-44.20 222.02,-43.13 227.05,-42.07 229.89,-40.77 232.73,-39.47 235.02,-38.32 237.32,-37.18 240.44,-35.02 243.57,-32.86 245.30,-30.97 247.03,-29.07 248.69,-26.67 250.34,-24.27 251.93,-21.23 253.52,-18.18 254.50,-14.97 255.49,-11.77 255.63,-10.77 255.77,-9.77 255.84,-9.05 255.91,-8.32 255.80,-7.60 255.69,-6.88 255.41,-6.20 255.14,-5.53 254.70,-4.94 254.27,-4.35 253.71,-3.88 253.15,-3.41 252.50,-3.09 251.84,-2.77 251.13,-2.61 250.42,-2.46 249.69,-2.48 248.96,-2.50 248.25,-2.69 247.55,-2.89 246.91,-3.25 246.28,-3.60 245.75,-4.10 245.21,-4.60 244.81,-5.21 244.42,-5.83 244.18,-6.52 243.94,-7.20 244.28,-11.74 244.63,-16.27 247.46,-20.38 250.29,-24.48 252.33,-26.70 254.36,-28.91 256.66,-31.14 258.97,-33.37 260.92,-35.09 262.87,-36.81 267.33,-38.85 271.78,-40.89 274.76,-41.07 277.73,-41.25 281.49,-41.16 285.25,-41.07 289.98,-39.44 294.71,-37.82 296.83,-36.71 298.96,-35.59 302.38,-32.96 305.80,-30.33 308.90,-27.77 312.01,-25.20 313.72,-23.25 315.44,-21.29 316.51,-19.39 317.58,-17.49 319.03,-15.53 320.48,-13.58 321.99,-11.66 323.50,-9.74 325.36,-5.23 327.22,-0.71 327.25,0.32 327.28,1.36 326.98,2.36 326.68,3.36 326.07,4.21 325.47,5.05 324.62,5.66 323.78,6.27 322.79,6.58 321.79,6.89 320.75,6.87 319.71,6.84 318.73,6.49 317.75,6.13 316.94,5.48 316.13,4.83 315.56,3.96 315.00,3.08 314.74,2.07 314.49,1.06 314.57,0.03 314.65,-1.00 315.06,-1.96 315.47,-2.92 316.16,-3.69 316.85,-4.47 317.76,-4.99 318.66,-5.50 319.68,-5.70 320.71,-5.90 321.74,-5.77 322.77,-5.63 323.70,-5.17 324.64,-4.71 325.38,-3.98 326.12,-3.24 326.58,-2.31 327.05,-1.38 327.19,-0.35 327.33,0.67 327.14,1.69 326.95,2.72 326.44,3.63 325.93,4.53 325.16,5.23 324.39,5.93 323.43,6.34 322.48,6.76 321.44,6.85 320.40,6.93 319.39,6.69 318.38,6.44 317.50,5.88 316.62,5.32 315.97,4.51 315.31,3.70 314.95,2.73 314.59,1.75 314.59,1.75 314.59,1.75 314.50,0.68 314.41,-0.39 313.32,-2.22 312.24,-4.05 310.37,-6.50 308.50,-8.94 307.42,-11.26 306.34,-13.57 304.01,-16.02 301.69,-18.46 298.59,-21.10 295.49,-23.73 292.83,-25.48 290.16,-27.22 286.87,-28.45 283.57,-29.68 281.00,-29.96 278.43,-30.24 275.08,-30.27 271.73,-30.30 269.14,-28.14 266.55,-25.98 264.47,-23.71 262.39,-21.45 260.89,-19.85 259.38,-18.25 257.58,-14.01 255.77,-9.77 255.84,-9.05 255.91,-8.32 255.80,-7.60 255.69,-6.88 255.41,-6.20 255.14,-5.53 254.71,-4.94 254.27,-4.35 253.71,-3.88 253.15,-3.41 252.50,-3.09 251.84,-2.77 251.13,-2.61 250.42,-2.46 249.69,-2.48 248.96,-2.50 248.25,-2.69 247.55,-2.89 246.91,-3.25 246.28,-3.60 245.75,-4.10 245.21,-4.60 244.82,-5.21 244.42,-5.83 244.18,-6.51 243.94,-7.20 243.89,-8.23 243.85,-9.25 243.34,-11.56 242.83,-13.87 242.06,-15.95 241.28,-18.04 238.84,-21.34 236.39,-24.63 234.45,-26.35 232.50,-28.08 230.62,-29.14 228.73,-30.21 224.62,-32.16 220.51,-34.12 218.38,-34.28 216.25,-34.45 213.60,-34.66 210.95,-34.87 208.23,-34.73 205.51,-34.60 203.05,-34.32 200.59,-34.05 197.73,-33.24 194.87,-32.43 192.42,-31.52 189.97,-30.61 188.25,-29.03 186.53,-27.45 183.04,-24.17 179.55,-20.90 178.56,-18.14 177.56,-15.39 176.46,-13.14 175.36,-10.89 175.42,-10.28 175.49,-9.66 175.40,-9.05 175.32,-8.44 175.09,-7.87 174.87,-7.29 174.51,-6.79 174.15,-6.28 173.68,-5.88 173.21,-5.48 172.66,-5.20 172.11,-4.92 171.51,-4.78 170.91,-4.64 170.29,-4.65 169.67,-4.66 169.07,-4.82 168.47,-4.98 167.93,-5.27 167.39,-5.57 166.93,-5.98 166.48,-6.40 166.13,-6.91 165.79,-7.43 165.58,-8.01 165.37,-8.59 164.85,-11.12 164.34,-13.65 163.68,-16.14 163.01,-18.63 161.92,-21.39 160.83,-24.16 159.68,-26.63 158.53,-29.10 157.08,-31.25 155.62,-33.40 153.95,-35.01 152.28,-36.62 150.14,-37.75 148.00,-38.87 145.93,-39.68 143.85,-40.48 141.33,-41.02 138.82,-41.55 135.95,-41.49 133.08,-41.43 129.24,-40.92 125.40,-40.40 122.44,-39.68 119.48,-38.96 116.48,-37.91 113.47,-36.87 111.20,-35.84 108.92,-34.81 106.89,-33.73 104.87,-32.66 102.80,-30.95 100.74,-29.25 98.81,-27.45 96.88,-25.66 95.44,-23.10 93.99,-20.55 92.25,-16.52 90.50,-12.49 89.44,-9.23 88.38,-5.98 87.22,-2.70 86.05,0.56 85.11,3.06 84.17,5.56 83.78,3.06 83.39,0.56 83.72,1.30 84.05,2.04 84.19,2.83 84.33,3.62 84.28,4.43 84.23,5.23 83.99,6.00 83.75,6.77 83.33,7.46 82.91,8.15 82.33,8.72 81.76,9.28 81.07,9.70 80.38,10.11 79.61,10.35 78.84,10.59 78.03,10.63 77.23,10.68 76.43,10.53 75.64,10.38 74.91,10.05 74.17,9.72 73.54,9.22 72.91,8.72 72.41,8.08 71.92,7.44 71.41,6.16 70.89,4.88 69.50,2.53 68.11,0.18 66.60,-1.45 65.09,-3.08 63.11,-5.74 61.13,-8.39 59.64,-10.24 58.15,-12.09 56.48,-13.42 54.81,-14.74 52.20,-17.04 49.60,-19.34 46.48,-20.91 43.36,-22.48 41.11,-22.61 38.86,-22.75 34.18,-22.87 29.49,-22.99 27.33,-23.03 25.17,-23.08 23.26,-21.93 21.35,-20.78 19.73,-19.09 18.10,-17.39 16.38,-15.38 14.66,-13.37 13.08,-11.11 11.51,-8.84 10.13,-6.53 8.76,-4.22 7.51,-2.18 6.25,-0.15 5.31,1.23 4.38,2.62 4.00,3.11 3.62,3.60 3.14,3.98 2.65,4.36 2.09,4.61 1.53,4.87 0.93,4.98 0.32,5.10 -0.28,5.06 -0.90,5.02 -1.49,4.84 -2.08,4.66 -2.61,4.35 -3.13,4.03 -3.57,3.59 -4.01,3.16 -4.33,2.63 -4.65,2.11 -4.83,1.52 -5.02,0.93 -5.06,0.32 -5.10,-0.29 -4.99,-0.89 -4.88,-1.50 -4.63,-2.06 -4.38,-2.62 -4.38,-2.62 L -4.38,-2.62 Z"></path></g><g stroke-linecap="round"><g transform="translate(11 128) rotate(0 79.5 88.5)"><path d="M0 0 C26.5 29.5, 132.5 147.5, 159 177 M0 0 C26.5 29.5, 132.5 147.5, 159 177" stroke="#2f9e44" stroke-width="4" fill="none"></path></g></g><mask></mask><g stroke-linecap="round"><g transform="translate(89 136) rotate(0 40.5 85)"><path d="M0 0 C13.5 28.33, 67.5 141.67, 81 170 M0 0 C13.5 28.33, 67.5 141.67, 81 170" stroke="#2f9e44" stroke-width="4" fill="none"></path></g></g><mask></mask><g stroke-linecap="round"><g transform="translate(181 119) rotate(0 -5.5 94)"><path d="M0 0 C-1.83 31.33, -9.17 156.67, -11 188 M0 0 C-1.83 31.33, -9.17 156.67, -11 188" stroke="#2f9e44" stroke-width="4" fill="none"></path></g></g><mask></mask><g stroke-linecap="round"><g transform="translate(259 124) rotate(0 -45 89.5)"><path d="M0 0 C-15 29.83, -75 149.17, -90 179 M0 0 C-15 29.83, -75 149.17, -90 179" stroke="#2f9e44" stroke-width="4" fill="none"></path></g></g><mask></mask><g stroke-linecap="round"><g transform="translate(334 132) rotate(0 -82 86)"><path d="M0 0 C-27.33 28.67, -136.67 143.33, -164 172 M0 0 C-27.33 28.67, -136.67 143.33, -164 172" stroke="#2f9e44" stroke-width="4" fill="none"></path></g></g><mask></mask><g stroke-linecap="round"><g transform="translate(169 307) rotate(0 0.5 12)"><path d="M0 0 C0.17 4, 0.83 20, 1 24 M0 0 C0.17 4, 0.83 20, 1 24" stroke="#2f9e44" stroke-width="1" fill="none"></path></g></g><mask></mask><g stroke-linecap="round"><g transform="translate(168.42857142857133 307.57142857142856) rotate(0 -4.285714285714221 4.285714285714278)"><path d="M0 0 C-1.43 1.43, -7.14 7.14, -8.57 8.57 M0 0 C-1.43 1.43, -7.14 7.14, -8.57 8.57" stroke="#2f9e44" stroke-width="2" fill="none"></path></g></g><mask></mask><g stroke-linecap="round"><g transform="translate(159.8571428571429 316.1428571428571) rotate(0 8.14285714285711 0.30952380952385283)"><path d="M0 0 C2.71 0.1, 13.57 0.52, 16.29 0.62 M0 0 C2.71 0.1, 13.57 0.52, 16.29 0.62" stroke="#2f9e44" stroke-width="2" fill="none"></path></g></g><mask></mask><g stroke-linecap="round"><g transform="translate(170.57142857142844 307.57142857142856) rotate(0 3.2142857142857792 4.642857142857167)"><path d="M0 0 C1.07 1.55, 5.36 7.74, 6.43 9.29 M0 0 C1.07 1.55, 5.36 7.74, 6.43 9.29" stroke="#2f9e44" stroke-width="2" fill="none"></path></g></g><mask></mask><g transform="translate(14.14285714285711 121.85714285714289) rotate(0 158.92857142857144 -53.21428571428572)" stroke="none"><path fill="#2f9e44" d="M -4.76,-2.19 Q -4.76,-2.19 -3.49,-4.85 -2.22,-7.50 -1.18,-10.17 -0.15,-12.84 0.80,-14.89 1.76,-16.95 3.99,-20.72 6.22,-24.49 8.23,-27.57 10.24,-30.64 11.65,-33.37 13.05,-36.09 14.05,-38.60 15.04,-41.11 16.70,-43.78 18.36,-46.46 20.48,-49.18 22.61,-51.90 24.29,-54.31 25.97,-56.72 27.54,-58.77 29.11,-60.82 30.96,-62.51 32.82,-64.21 34.63,-66.41 36.44,-68.61 38.87,-71.08 41.31,-73.56 43.53,-75.10 45.74,-76.65 47.09,-78.32 48.44,-79.98 50.37,-81.65 52.30,-83.32 55.19,-85.26 58.08,-87.21 60.27,-88.98 62.46,-90.76 64.50,-91.87 66.54,-92.98 68.75,-94.47 70.96,-95.97 72.73,-97.66 74.50,-99.35 77.57,-101.14 80.63,-102.93 82.67,-103.61 84.70,-104.29 86.89,-104.72 89.08,-105.15 91.45,-106.11 93.82,-107.07 96.55,-108.04 99.29,-109.01 102.04,-109.92 104.78,-110.83 107.92,-112.02 111.06,-113.22 113.33,-113.53 115.60,-113.85 118.03,-114.53 120.46,-115.20 122.95,-115.57 125.44,-115.94 128.67,-115.95 131.90,-115.97 134.25,-116.24 136.60,-116.52 138.71,-116.87 140.81,-117.22 143.26,-117.69 145.72,-118.15 147.87,-118.37 150.02,-118.58 153.01,-118.63 155.99,-118.68 158.54,-118.68 161.08,-118.67 163.21,-118.67 165.35,-118.67 167.83,-118.69 170.31,-118.71 172.57,-118.72 174.84,-118.73 178.51,-117.68 182.18,-116.63 184.19,-115.69 186.19,-114.75 189.55,-113.60 192.91,-112.44 195.17,-112.74 197.43,-113.04 200.76,-112.73 204.10,-112.42 206.20,-111.68 208.29,-110.93 211.26,-110.54 214.23,-110.14 217.69,-109.21 221.14,-108.29 224.95,-106.57 228.75,-104.85 230.73,-103.90 232.71,-102.94 235.02,-101.67 237.33,-100.39 240.12,-99.27 242.90,-98.15 246.98,-95.59 251.05,-93.03 252.85,-91.77 254.64,-90.51 257.21,-89.15 259.77,-87.78 262.25,-86.20 264.73,-84.61 266.51,-83.21 268.29,-81.80 271.54,-78.81 274.79,-75.81 276.49,-74.51 278.19,-73.21 280.38,-71.28 282.58,-69.36 285.67,-66.98 288.77,-64.61 291.48,-62.12 294.19,-59.62 296.10,-58.31 298.01,-57.00 299.98,-55.39 301.94,-53.79 303.70,-51.72 305.46,-49.65 307.38,-46.99 309.30,-44.34 310.90,-42.17 312.50,-40.00 314.12,-37.33 315.73,-34.65 316.67,-32.22 317.61,-29.78 318.35,-27.02 319.09,-24.26 319.44,-21.67 319.80,-19.07 319.92,-16.61 320.04,-14.14 320.60,-11.89 321.17,-9.64 322.41,-7.19 323.65,-4.75 324.45,-2.49 325.25,-0.22 325.28,2.27 325.32,4.77 325.12,5.96 324.93,7.15 324.36,8.22 323.80,9.29 322.92,10.12 322.04,10.95 320.95,11.46 319.85,11.97 318.65,12.10 317.45,12.23 316.27,11.97 315.09,11.71 314.05,11.09 313.02,10.46 312.24,9.54 311.45,8.62 311.01,7.50 310.56,6.38 310.49,5.17 310.43,3.97 310.75,2.80 311.07,1.64 311.75,0.64 312.43,-0.35 313.39,-1.08 314.35,-1.82 315.50,-2.20 316.64,-2.59 317.85,-2.59 319.06,-2.59 320.20,-2.20 321.35,-1.82 322.31,-1.09 323.27,-0.36 323.95,0.63 324.63,1.63 324.95,2.80 325.28,3.96 325.21,5.17 325.15,6.37 324.70,7.50 324.25,8.62 323.47,9.54 322.69,10.46 321.65,11.08 320.62,11.71 319.44,11.97 318.26,12.23 317.06,12.10 315.85,11.97 314.76,11.46 313.66,10.95 312.78,10.12 311.91,9.29 311.34,8.22 310.78,7.16 310.58,5.96 310.38,4.77 310.38,4.77 310.38,4.77 311.40,4.14 312.42,3.51 310.97,1.51 309.52,-0.48 308.58,-2.63 307.63,-4.78 306.63,-8.36 305.64,-11.93 305.64,-14.16 305.65,-16.38 305.35,-18.62 305.05,-20.86 304.74,-23.21 304.43,-25.57 303.57,-28.19 302.71,-30.81 301.32,-32.71 299.93,-34.62 298.87,-36.96 297.81,-39.31 296.48,-41.45 295.14,-43.60 293.30,-45.35 291.47,-47.11 289.17,-48.58 286.88,-50.06 282.49,-53.06 278.10,-56.07 275.30,-57.99 272.51,-59.92 270.95,-61.54 269.39,-63.16 267.56,-64.70 265.74,-66.23 263.03,-68.55 260.33,-70.88 257.73,-72.77 255.14,-74.67 253.25,-75.91 251.37,-77.15 248.78,-78.38 246.19,-79.62 244.39,-80.93 242.59,-82.25 240.35,-83.62 238.10,-84.99 235.43,-86.04 232.77,-87.10 230.29,-88.49 227.81,-89.87 225.15,-91.13 222.49,-92.38 219.69,-93.51 216.89,-94.63 213.85,-95.23 210.80,-95.84 207.83,-96.33 204.85,-96.82 202.67,-97.64 200.50,-98.45 197.18,-98.44 193.87,-98.43 191.01,-98.64 188.14,-98.84 185.69,-99.77 183.24,-100.69 180.93,-101.55 178.62,-102.40 175.62,-103.26 172.63,-104.11 169.92,-104.14 167.20,-104.16 164.17,-104.16 161.13,-104.16 158.66,-104.13 156.19,-104.10 153.74,-103.99 151.28,-103.89 149.13,-103.48 146.98,-103.08 143.41,-102.70 139.84,-102.33 137.35,-101.74 134.86,-101.15 132.30,-101.14 129.75,-101.13 127.13,-101.11 124.52,-101.09 122.20,-100.60 119.88,-100.11 117.33,-99.59 114.78,-99.06 111.56,-97.69 108.35,-96.31 106.00,-95.66 103.66,-95.00 101.49,-94.16 99.33,-93.32 96.38,-92.19 93.43,-91.06 90.53,-90.34 87.63,-89.61 85.51,-88.40 83.39,-87.19 81.45,-85.70 79.52,-84.21 76.91,-82.63 74.31,-81.04 71.78,-79.56 69.26,-78.08 67.60,-76.62 65.93,-75.15 63.98,-73.91 62.03,-72.67 59.86,-70.70 57.70,-68.73 55.12,-66.58 52.54,-64.43 50.08,-62.40 47.61,-60.38 45.98,-58.39 44.34,-56.40 42.34,-54.74 40.34,-53.08 38.75,-51.00 37.16,-48.92 35.55,-46.97 33.93,-45.02 32.46,-43.32 30.99,-41.61 29.33,-39.95 27.68,-38.28 26.35,-36.06 25.03,-33.84 23.64,-30.94 22.26,-28.05 21.11,-26.04 19.96,-24.04 17.91,-21.20 15.87,-18.37 14.70,-16.54 13.53,-14.71 11.96,-12.32 10.40,-9.93 8.78,-6.55 7.15,-3.17 5.95,-0.48 4.76,2.19 4.42,2.73 4.09,3.27 3.64,3.71 3.19,4.15 2.64,4.47 2.10,4.80 1.50,4.98 0.89,5.16 0.26,5.19 -0.36,5.22 -0.98,5.11 -1.60,4.99 -2.18,4.72 -2.75,4.46 -3.24,4.06 -3.74,3.67 -4.12,3.17 -4.51,2.66 -4.76,2.09 -5.02,1.51 -5.12,0.88 -5.23,0.26 -5.19,-0.36 -5.14,-0.99 -4.95,-1.59 -4.75,-2.19 -4.76,-2.19 L -4.76,-2.19 Z"></path></g><g stroke-linecap="round" transform="translate(158.42857142857144 330.42857142857144) rotate(0 14.285714285714278 24.642857142857167)"><path d="M0 0 L28.57 0 L28.57 49.29 L0 49.29" stroke="none" stroke-width="0" fill="#b2f2bb"></path><path d="M0 0 C6.87 0, 13.74 0, 28.57 0 M0 0 C10.49 0, 20.99 0, 28.57 0 M28.57 0 C28.57 17.81, 28.57 35.62, 28.57 49.29 M28.57 0 C28.57 14.5, 28.57 29, 28.57 49.29 M28.57 49.29 C21.48 49.29, 14.4 49.29, 0 49.29 M28.57 49.29 C22.35 49.29, 16.13 49.29, 0 49.29 M0 49.29 C0 29.89, 0 10.49, 0 0 M0 49.29 C0 31.22, 0 13.15, 0 0" stroke="#2f9e44" stroke-width="2" fill="none"></path></g><g transform="translate(41.28571428571422 89.71428571428567) rotate(0 135.3571428571429 -28.571428571428612)" stroke="none"><path fill="#2f9e44" d="M -4.53,-9.07 Q -4.53,-9.07 -1.74,-10.67 1.04,-12.27 5.01,-14.48 8.97,-16.69 13.91,-20.20 18.84,-23.70 24.43,-28.06 30.01,-32.41 35.20,-35.89 40.38,-39.36 43.78,-41.51 47.17,-43.65 48.40,-44.62 49.62,-45.59 51.05,-46.23 52.47,-46.88 54.00,-47.17 55.54,-47.45 57.10,-47.36 58.66,-47.27 60.15,-46.81 61.64,-46.35 62.98,-45.55 64.32,-44.75 65.43,-43.65 66.54,-42.54 67.35,-41.21 68.16,-39.88 68.63,-38.39 69.10,-36.90 69.20,-35.34 69.30,-33.78 69.02,-32.24 68.75,-30.70 68.11,-29.28 67.47,-27.85 66.51,-26.62 65.55,-25.39 60.63,-24.57 55.70,-23.76 51.20,-20.56 46.70,-17.36 42.93,-12.89 39.16,-8.42 34.59,-5.54 30.02,-2.67 21.78,-4.95 13.55,-7.24 11.59,-11.26 9.63,-15.28 12.66,-23.37 15.69,-31.46 24.23,-39.11 32.76,-46.77 37.80,-51.24 42.83,-55.72 46.03,-58.90 49.23,-62.08 52.51,-64.99 55.78,-67.89 59.91,-71.23 64.03,-74.57 69.97,-77.74 75.91,-80.91 80.95,-82.30 86.00,-83.69 90.80,-85.26 95.60,-86.83 100.04,-87.33 104.48,-87.83 109.78,-87.37 115.07,-86.92 121.29,-86.32 127.51,-85.72 131.74,-85.11 135.97,-84.49 141.31,-83.36 146.65,-82.23 151.24,-82.40 155.83,-82.56 162.75,-81.95 169.67,-81.33 174.78,-79.46 179.89,-77.60 184.23,-75.58 188.57,-73.56 193.55,-71.97 198.53,-70.39 203.94,-67.83 209.35,-65.27 212.55,-62.45 215.75,-59.63 211.20,-63.57 206.65,-67.52 212.44,-65.71 218.23,-63.90 222.93,-61.94 227.63,-59.97 232.46,-57.43 237.29,-54.90 241.02,-52.09 244.75,-49.27 247.35,-45.77 249.95,-42.27 254.37,-40.66 258.80,-39.06 260.69,-34.86 262.58,-30.67 264.89,-25.90 267.19,-21.13 271.36,-17.38 275.53,-13.62 274.37,-14.50 273.21,-15.38 274.72,-14.27 276.23,-13.16 277.44,-11.71 278.64,-10.27 279.46,-8.58 280.28,-6.90 280.68,-5.06 281.08,-3.23 281.02,-1.35 280.96,0.52 280.46,2.32 279.96,4.13 279.04,5.77 278.11,7.41 276.83,8.77 275.54,10.14 273.97,11.16 272.39,12.18 270.62,12.79 268.84,13.41 266.97,13.58 265.10,13.75 263.25,13.47 261.39,13.19 259.66,12.47 257.92,11.75 257.20,-0.25 256.47,-12.26 259.91,-14.83 263.34,-17.41 266.75,-17.57 270.16,-17.74 272.03,-17.52 273.89,-17.29 275.65,-16.63 277.41,-15.96 278.96,-14.90 280.51,-13.83 281.76,-12.43 283.01,-11.02 283.89,-9.36 284.76,-7.69 285.22,-5.87 285.67,-4.04 285.67,-2.16 285.67,-0.28 285.23,1.54 284.78,3.36 283.91,5.03 283.04,6.70 281.79,8.11 280.55,9.52 279.00,10.59 277.45,11.66 275.70,12.33 273.94,13.00 272.07,13.23 270.21,13.45 265.54,12.38 260.87,11.30 256.84,9.50 252.80,7.70 247.31,3.96 241.83,0.22 235.33,-1.80 228.84,-3.83 220.99,-7.19 213.14,-10.55 208.90,-12.45 204.65,-14.35 200.10,-16.33 195.55,-18.32 189.99,-20.88 184.42,-23.44 179.75,-24.03 175.08,-24.63 168.94,-25.55 162.80,-26.47 150.25,-29.12 137.70,-31.77 129.32,-33.45 120.95,-35.13 116.18,-35.42 111.41,-35.71 106.58,-35.60 101.75,-35.49 96.32,-35.26 90.89,-35.03 86.35,-33.88 81.81,-32.73 77.78,-30.77 73.76,-28.82 68.75,-25.41 63.75,-22.01 58.67,-19.64 53.59,-17.27 49.95,-12.14 46.31,-7.01 40.94,-1.46 35.56,4.09 31.82,7.55 28.08,11.01 24.49,13.36 20.90,15.70 18.07,16.63 15.24,17.56 13.54,17.77 11.84,17.98 10.14,17.77 8.44,17.56 6.84,16.96 5.24,16.35 3.83,15.38 2.42,14.41 1.28,13.12 0.15,11.84 -0.64,10.33 -1.44,8.81 -1.85,7.15 -2.26,5.48 -2.26,3.77 -2.26,2.06 -1.85,0.40 -1.44,-1.26 -0.64,-2.77 0.14,-4.29 1.28,-5.57 2.41,-6.85 3.82,-7.83 5.23,-8.80 6.83,-9.41 8.43,-10.02 13.02,-10.39 17.60,-10.77 21.89,-10.14 26.18,-9.51 30.72,-8.38 35.26,-7.25 39.86,-3.70 44.46,-0.16 46.94,3.52 49.42,7.20 51.21,10.45 53.01,13.69 53.06,15.49 53.11,17.29 52.73,19.06 52.35,20.82 51.56,22.43 50.77,24.05 49.62,25.44 48.46,26.82 47.01,27.88 45.56,28.95 43.89,29.64 42.23,30.32 40.45,30.59 38.66,30.86 36.87,30.70 35.08,30.53 33.38,29.94 31.67,29.35 30.16,28.37 28.65,27.39 27.42,26.08 26.18,24.76 25.30,23.19 24.42,21.62 23.94,19.89 23.46,18.15 25.85,11.72 28.24,5.28 28.72,0.83 29.20,-3.62 32.99,-8.77 36.78,-13.93 41.67,-18.47 46.55,-23.01 53.49,-26.60 60.44,-30.19 66.70,-33.47 72.97,-36.76 77.94,-38.89 82.91,-41.01 87.95,-42.72 92.99,-44.42 98.38,-46.00 103.76,-47.59 108.18,-48.41 112.59,-49.22 114.58,-49.39 116.58,-49.55 118.24,-49.41 119.91,-49.27 121.49,-48.73 123.07,-48.19 124.48,-47.29 125.89,-46.39 127.04,-45.18 128.19,-43.97 129.02,-42.51 129.85,-41.06 130.30,-39.46 130.76,-37.85 130.82,-36.18 130.88,-34.51 130.53,-32.87 130.19,-31.24 129.47,-29.73 128.74,-28.22 127.68,-26.93 126.61,-25.65 125.27,-24.65 123.93,-23.65 122.39,-23.01 120.85,-22.36 119.20,-22.10 117.55,-21.84 111.21,-23.92 104.87,-26.01 99.56,-27.44 94.25,-28.87 87.53,-31.30 80.80,-33.73 77.58,-36.92 74.36,-40.11 74.85,-47.23 75.33,-54.35 77.82,-58.00 80.31,-61.66 84.17,-63.45 88.02,-65.24 92.89,-66.57 97.76,-67.91 102.91,-69.03 108.06,-70.15 112.42,-70.74 116.77,-71.33 122.43,-70.59 128.09,-69.86 134.08,-71.26 140.06,-72.66 144.97,-73.72 149.89,-74.78 154.41,-75.06 158.93,-75.34 160.10,-75.91 161.27,-76.49 163.04,-76.43 164.82,-76.38 166.53,-75.90 168.24,-75.42 169.79,-74.55 171.34,-73.68 172.63,-72.46 173.92,-71.24 174.89,-69.75 175.85,-68.25 176.43,-66.57 177.01,-64.89 177.17,-63.13 177.32,-61.36 177.06,-59.60 176.79,-57.84 176.11,-56.20 175.43,-54.56 174.37,-53.13 173.32,-51.70 171.95,-50.57 170.59,-49.43 168.99,-48.65 167.39,-47.88 165.65,-47.50 163.92,-47.13 158.84,-48.57 153.76,-50.02 149.93,-53.22 146.10,-56.42 148.59,-54.33 151.08,-52.23 149.51,-53.09 147.93,-53.95 146.61,-55.16 145.29,-56.37 144.29,-57.87 143.30,-59.36 142.69,-61.05 142.08,-62.74 141.90,-64.52 141.71,-66.30 141.96,-68.08 142.21,-69.86 142.87,-71.53 143.53,-73.19 144.58,-74.65 145.62,-76.11 146.99,-77.28 148.35,-78.44 149.95,-79.25 151.55,-80.06 153.30,-80.46 155.05,-80.86 156.84,-80.82 158.64,-80.79 160.37,-80.34 162.11,-79.88 157.62,-80.21 153.14,-80.55 157.75,-81.28 162.36,-82.02 164.41,-82.09 166.47,-82.15 168.27,-81.95 170.07,-81.75 171.77,-81.12 173.46,-80.49 174.96,-79.47 176.46,-78.46 177.67,-77.11 178.88,-75.77 179.74,-74.17 180.59,-72.57 181.04,-70.82 181.48,-69.07 181.50,-67.25 181.51,-65.44 181.09,-63.68 180.68,-61.92 179.85,-60.31 179.02,-58.70 177.83,-57.34 176.64,-55.97 175.16,-54.93 173.68,-53.89 171.99,-53.24 170.30,-52.58 168.50,-52.35 166.71,-52.12 161.75,-52.09 156.78,-52.05 161.33,-56.86 165.89,-61.66 169.61,-55.66 173.34,-49.66 172.84,-41.08 172.35,-32.49 168.92,-27.02 165.50,-21.55 162.29,-18.53 159.09,-15.52 154.02,-13.26 148.95,-11.00 144.63,-10.92 140.32,-10.84 135.99,-11.00 131.67,-11.17 127.26,-11.15 122.86,-11.13 117.36,-11.56 111.85,-12.00 116.83,-12.91 121.80,-13.83 114.67,-12.54 107.54,-11.25 102.04,-10.85 96.55,-10.45 92.31,-9.42 88.06,-8.39 83.51,-7.43 78.95,-6.46 74.76,-2.62 70.57,1.20 66.66,3.17 62.75,5.15 59.36,8.27 55.97,11.39 57.82,7.49 59.68,3.60 58.50,8.52 57.31,13.45 54.59,17.56 51.86,21.67 54.05,19.17 56.24,16.67 56.01,18.53 55.78,20.38 55.11,22.13 54.44,23.88 53.37,25.42 52.30,26.95 50.89,28.19 49.49,29.43 47.82,30.29 46.16,31.15 44.34,31.60 42.52,32.04 40.65,32.03 38.78,32.02 36.96,31.57 35.15,31.11 33.49,30.24 31.84,29.36 30.44,28.11 29.05,26.87 27.99,25.32 26.93,23.78 26.27,22.02 25.62,20.27 25.40,18.41 25.18,16.55 26.27,11.38 27.36,6.22 28.94,1.57 30.52,-3.06 33.53,-6.37 36.54,-9.68 38.41,-15.13 40.29,-20.58 43.69,-24.28 47.10,-27.97 51.26,-31.55 55.43,-35.12 61.00,-38.60 66.56,-42.08 71.82,-42.86 77.08,-43.64 84.65,-43.28 92.21,-42.92 98.26,-41.39 104.31,-39.86 109.79,-38.52 115.27,-37.17 119.67,-35.12 124.06,-33.07 128.95,-33.55 133.85,-34.02 138.60,-32.54 143.35,-31.06 148.07,-29.72 152.80,-28.38 157.90,-24.05 163.01,-19.72 163.76,-14.69 164.52,-9.65 162.32,-5.12 160.11,-0.59 156.58,2.01 153.05,4.61 145.54,4.59 138.03,4.58 143.85,2.15 149.66,-0.27 151.12,-4.43 152.58,-8.58 140.66,-8.89 128.74,-9.21 131.32,-13.88 133.90,-18.55 138.70,-23.29 143.51,-28.03 149.06,-31.21 154.61,-34.39 160.25,-36.02 165.90,-37.66 172.20,-37.77 178.51,-37.88 185.06,-37.82 191.61,-37.76 196.67,-37.02 201.73,-36.28 206.52,-32.87 211.30,-29.46 216.21,-29.64 221.11,-29.81 226.89,-25.85 232.67,-21.88 236.60,-18.96 240.54,-16.04 239.95,-6.42 239.35,3.19 235.41,6.20 231.48,9.22 227.07,9.40 222.67,9.57 228.71,2.49 234.75,-4.59 232.09,4.24 229.44,13.09 221.43,12.61 213.42,12.14 210.35,9.12 207.27,6.11 203.03,4.57 198.78,3.04 193.13,0.54 187.47,-1.95 183.48,-4.45 179.49,-6.94 175.13,-5.15 170.77,-3.36 165.49,-2.20 160.21,-1.04 164.19,-3.56 168.18,-6.09 164.20,-3.19 160.23,-0.29 155.67,1.30 151.11,2.89 152.19,-1.36 153.27,-5.62 150.88,-10.90 148.50,-16.18 151.06,-11.34 153.62,-6.49 150.75,-10.94 147.88,-15.39 147.22,-15.93 146.56,-16.46 148.12,-15.45 149.69,-14.44 150.97,-13.08 152.26,-11.73 153.17,-10.10 154.09,-8.48 154.60,-6.68 155.10,-4.89 155.16,-3.02 155.22,-1.16 154.83,0.66 154.44,2.48 153.63,4.16 152.82,5.84 151.63,7.27 150.43,8.71 148.93,9.82 147.43,10.92 145.71,11.64 143.99,12.36 142.14,12.64 140.30,12.92 138.44,12.76 136.58,12.59 134.82,11.99 133.06,11.38 128.87,2.74 124.69,-5.89 126.38,-11.19 128.08,-16.50 141.79,-25.48 155.50,-34.46 163.25,-37.39 171.00,-40.32 180.82,-40.99 190.64,-41.67 195.68,-41.73 200.73,-41.79 205.22,-41.68 209.72,-41.57 215.48,-38.43 221.24,-35.30 225.11,-31.69 228.97,-28.09 233.21,-23.26 237.45,-18.43 240.32,-13.99 243.19,-9.54 243.83,-5.31 244.46,-1.08 241.64,4.73 238.81,10.55 234.71,12.97 230.60,15.39 234.38,11.26 238.16,7.14 236.67,9.87 235.17,12.60 234.08,13.82 232.98,15.04 231.62,15.96 230.26,16.89 228.73,17.46 227.19,18.03 225.56,18.22 223.92,18.40 222.30,18.20 220.67,17.99 219.14,17.39 217.61,16.80 216.26,15.86 214.92,14.92 213.84,13.68 212.76,12.45 212.00,10.99 211.25,9.53 210.87,7.93 210.49,6.33 210.50,4.69 210.51,3.05 210.91,1.46 211.32,-0.12 212.09,-1.57 212.86,-3.02 211.90,2.79 210.94,8.60 210.44,1.76 209.94,-5.08 210.23,-11.65 210.51,-18.22 210.05,-24.51 209.60,-30.81 213.05,-26.89 216.50,-22.96 209.68,-23.82 202.86,-24.68 198.31,-27.99 193.77,-31.29 192.36,-33.00 190.94,-34.70 190.15,-36.77 189.36,-38.83 189.27,-41.04 189.17,-43.25 189.79,-45.38 190.41,-47.50 191.68,-49.32 192.94,-51.13 194.72,-52.45 196.50,-53.77 198.60,-54.45 200.71,-55.13 202.92,-55.10 205.13,-55.07 207.22,-54.34 209.31,-53.60 211.05,-52.24 212.80,-50.88 214.02,-49.04 215.23,-47.19 215.80,-45.05 216.36,-42.91 216.22,-40.70 216.07,-38.49 215.22,-36.45 214.38,-34.41 212.92,-32.74 211.47,-31.07 209.56,-29.95 207.65,-28.84 205.48,-28.39 203.32,-27.94 201.12,-28.21 198.92,-28.47 196.93,-29.43 194.93,-30.38 193.35,-31.93 191.76,-33.47 190.75,-35.44 189.74,-37.40 189.41,-39.59 189.08,-41.78 189.46,-43.96 189.85,-46.14 190.91,-48.08 191.97,-50.02 193.60,-51.52 195.22,-53.02 197.24,-53.92 199.26,-54.83 201.46,-55.04 203.67,-55.25 205.82,-54.75 207.98,-54.24 209.86,-53.08 211.74,-51.91 211.74,-51.91 211.73,-51.92 215.01,-50.37 218.29,-48.83 222.81,-47.61 227.34,-46.40 230.82,-41.63 234.30,-36.86 234.73,-32.29 235.16,-27.72 235.49,-23.38 235.83,-19.03 236.20,-9.73 236.58,-0.42 235.87,6.08 235.17,12.60 234.08,13.82 232.98,15.04 231.62,15.96 230.27,16.89 228.73,17.46 227.19,18.03 225.56,18.22 223.93,18.40 222.30,18.20 220.67,17.99 219.14,17.39 217.61,16.80 216.26,15.86 214.92,14.92 213.84,13.68 212.76,12.45 212.00,10.99 211.25,9.53 210.87,7.93 210.49,6.34 210.50,4.69 210.51,3.05 210.91,1.46 211.32,-0.12 212.09,-1.57 212.86,-3.02 213.41,-3.55 213.95,-4.09 219.16,-7.64 224.37,-11.19 221.01,-7.20 217.64,-3.21 214.98,-6.69 212.33,-10.16 208.71,-14.61 205.09,-19.05 199.05,-19.53 193.01,-20.01 186.94,-18.93 180.86,-17.85 175.39,-14.72 169.91,-11.59 162.52,-5.98 155.14,-0.37 150.85,-8.41 146.56,-16.46 148.12,-15.45 149.69,-14.44 150.97,-13.08 152.25,-11.73 153.17,-10.10 154.09,-8.48 154.60,-6.69 155.10,-4.89 155.16,-3.03 155.22,-1.16 154.83,0.65 154.45,2.48 153.63,4.16 152.82,5.84 151.63,7.27 150.43,8.71 148.93,9.81 147.43,10.92 145.71,11.64 143.99,12.36 142.15,12.64 140.30,12.92 138.44,12.76 136.59,12.59 134.82,11.99 133.06,11.38 132.14,10.32 131.22,9.25 127.31,3.83 123.40,-1.59 125.72,2.07 128.04,5.74 125.24,-0.51 122.45,-6.77 123.63,-11.38 124.82,-15.99 128.69,-19.57 132.56,-23.15 138.87,-23.96 145.18,-24.77 150.26,-26.84 155.34,-28.90 159.34,-30.72 163.34,-32.54 168.05,-33.29 172.76,-34.05 177.58,-34.33 182.40,-34.62 186.81,-34.43 191.22,-34.24 197.12,-31.24 203.02,-28.24 207.96,-26.45 212.89,-24.65 217.22,-22.70 221.55,-20.76 225.61,-17.36 229.66,-13.96 223.49,-14.03 217.32,-14.10 213.93,-3.18 210.54,7.73 209.54,0.86 208.55,-6.01 212.76,-12.25 216.96,-18.49 222.16,-19.73 227.35,-20.96 223.82,-18.16 220.29,-15.37 220.16,-5.11 220.03,5.15 216.43,2.02 212.84,-1.09 208.58,-2.55 204.33,-4.02 197.97,-5.98 191.61,-7.94 185.12,-7.87 178.64,-7.79 174.04,-7.80 169.45,-7.81 164.92,-5.09 160.39,-2.37 156.92,2.50 153.45,7.38 142.07,8.03 130.69,8.68 128.06,4.51 125.42,0.33 124.32,-3.87 123.21,-8.08 124.85,-13.43 126.48,-18.78 134.41,-21.33 142.34,-23.88 147.07,-21.38 151.80,-18.88 145.43,-18.95 139.05,-19.02 137.14,-14.97 135.23,-10.92 136.76,-6.76 138.30,-2.60 132.35,-4.26 126.41,-5.92 121.28,-6.62 116.15,-7.32 111.60,-8.65 107.05,-9.99 102.57,-10.98 98.10,-11.98 91.70,-12.79 85.30,-13.59 80.16,-12.73 75.01,-11.86 70.35,-7.92 65.68,-3.97 64.21,0.86 62.73,5.70 59.49,11.18 56.24,16.67 56.01,18.52 55.78,20.38 55.11,22.13 54.44,23.88 53.37,25.42 52.30,26.95 50.89,28.19 49.49,29.43 47.83,30.29 46.17,31.15 44.35,31.60 42.53,32.04 40.65,32.03 38.78,32.02 36.97,31.57 35.15,31.11 33.49,30.24 31.84,29.36 30.44,28.11 29.05,26.87 27.99,25.32 26.93,23.78 26.27,22.03 25.62,20.27 25.40,18.41 25.18,16.55 25.18,16.20 25.18,15.84 25.71,11.57 26.24,7.30 27.76,2.95 29.29,-1.39 32.49,-6.54 35.69,-11.68 39.37,-13.81 43.05,-15.95 47.09,-18.49 51.13,-21.04 54.55,-24.02 57.98,-27.01 62.41,-30.11 66.84,-33.22 71.98,-35.04 77.11,-36.87 81.62,-37.98 86.12,-39.09 91.12,-40.08 96.11,-41.08 101.07,-40.30 106.03,-39.51 111.66,-40.60 117.28,-41.68 122.05,-41.70 126.81,-41.72 131.18,-41.67 135.54,-41.63 139.77,-42.98 143.99,-44.32 142.20,-49.40 140.42,-54.47 139.77,-59.01 139.12,-63.55 140.76,-67.67 142.41,-71.79 149.59,-77.01 156.78,-82.22 161.63,-82.19 166.47,-82.15 168.27,-81.95 170.07,-81.75 171.76,-81.12 173.46,-80.49 174.96,-79.47 176.46,-78.46 177.67,-77.11 178.88,-75.77 179.74,-74.17 180.59,-72.57 181.04,-70.82 181.48,-69.07 181.50,-67.26 181.51,-65.45 181.09,-63.68 180.68,-61.92 179.85,-60.31 179.02,-58.70 177.83,-57.34 176.64,-55.97 175.16,-54.93 173.68,-53.89 171.99,-53.24 170.30,-52.58 168.51,-52.35 166.71,-52.12 164.10,-52.05 161.50,-51.98 156.29,-52.10 151.08,-52.23 149.51,-53.09 147.93,-53.95 146.61,-55.16 145.29,-56.37 144.29,-57.87 143.30,-59.36 142.69,-61.05 142.08,-62.73 141.90,-64.52 141.71,-66.30 141.96,-68.08 142.20,-69.86 142.87,-71.52 143.53,-73.19 144.58,-74.65 145.62,-76.11 146.98,-77.27 148.35,-78.44 149.95,-79.25 151.55,-80.06 153.30,-80.46 155.05,-80.85 156.84,-80.82 158.64,-80.79 160.37,-80.34 162.11,-79.88 166.50,-76.93 170.90,-73.98 166.08,-75.24 161.27,-76.49 163.04,-76.43 164.82,-76.38 166.53,-75.90 168.24,-75.42 169.79,-74.55 171.33,-73.68 172.63,-72.46 173.92,-71.24 174.88,-69.75 175.85,-68.26 176.43,-66.58 177.01,-64.90 177.17,-63.13 177.33,-61.36 177.06,-59.60 176.79,-57.85 176.11,-56.20 175.43,-54.56 174.37,-53.13 173.32,-51.70 171.95,-50.57 170.59,-49.43 168.99,-48.65 167.39,-47.88 165.66,-47.50 163.92,-47.13 164.37,-47.12 164.82,-47.10 159.29,-46.60 153.75,-46.10 148.24,-44.74 142.73,-43.38 133.82,-42.70 124.92,-42.02 119.86,-42.37 114.80,-42.73 109.92,-41.64 105.04,-40.55 100.63,-41.60 96.22,-42.66 95.35,-50.15 94.47,-57.63 101.37,-55.91 108.27,-54.19 112.42,-51.87 116.58,-49.55 118.24,-49.41 119.91,-49.27 121.49,-48.73 123.07,-48.19 124.48,-47.29 125.89,-46.39 127.04,-45.18 128.19,-43.97 129.02,-42.52 129.85,-41.06 130.30,-39.46 130.76,-37.85 130.82,-36.18 130.88,-34.51 130.53,-32.87 130.19,-31.24 129.47,-29.73 128.74,-28.22 127.68,-26.94 126.61,-25.65 125.27,-24.65 123.93,-23.65 122.39,-23.01 120.85,-22.36 119.20,-22.10 117.55,-21.84 114.36,-21.55 111.18,-21.26 106.74,-20.25 102.30,-19.24 94.79,-15.81 87.28,-12.38 80.77,-8.50 74.26,-4.62 68.21,-1.73 62.16,1.15 59.45,4.63 56.74,8.10 55.30,12.69 53.87,17.28 51.65,21.39 49.43,25.50 51.22,19.60 53.01,13.69 53.06,15.49 53.11,17.29 52.73,19.05 52.35,20.81 51.56,22.43 50.77,24.05 49.62,25.43 48.46,26.82 47.01,27.88 45.56,28.95 43.89,29.64 42.23,30.32 40.45,30.59 38.67,30.86 36.87,30.70 35.08,30.53 33.38,29.94 31.67,29.35 30.16,28.37 28.65,27.39 27.42,26.08 26.19,24.77 25.30,23.19 24.42,21.62 23.94,19.89 23.46,18.15 24.25,18.81 25.03,19.47 20.14,18.51 15.24,17.56 13.54,17.77 11.84,17.98 10.14,17.77 8.44,17.56 6.84,16.96 5.24,16.35 3.83,15.38 2.42,14.41 1.28,13.12 0.15,11.84 -0.64,10.33 -1.44,8.81 -1.85,7.15 -2.26,5.49 -2.26,3.77 -2.26,2.06 -1.85,0.40 -1.44,-1.26 -0.64,-2.77 0.14,-4.29 1.28,-5.57 2.41,-6.85 3.82,-7.83 5.23,-8.80 6.83,-9.41 8.43,-10.02 9.16,-10.18 9.88,-10.35 13.36,-13.19 16.84,-16.03 21.12,-20.77 25.41,-25.52 27.73,-29.29 30.05,-33.05 33.32,-36.02 36.58,-38.98 41.70,-40.84 46.81,-42.70 51.52,-45.10 56.24,-47.50 62.60,-50.30 68.97,-53.10 74.26,-54.77 79.56,-56.44 85.29,-57.11 91.02,-57.78 96.78,-57.46 102.54,-57.15 107.79,-56.56 113.04,-55.97 118.06,-55.47 123.08,-54.97 131.94,-54.80 140.80,-54.63 153.33,-53.88 165.86,-53.13 173.35,-52.76 180.83,-52.39 188.44,-50.14 196.05,-47.89 200.68,-45.70 205.31,-43.50 210.04,-41.89 214.78,-40.28 219.81,-38.55 224.84,-36.82 231.33,-34.54 237.81,-32.25 242.14,-31.09 246.48,-29.92 253.94,-26.36 261.41,-22.79 265.78,-20.27 270.16,-17.74 272.02,-17.52 273.89,-17.29 275.65,-16.63 277.41,-15.96 278.96,-14.90 280.51,-13.83 281.76,-12.43 283.01,-11.02 283.89,-9.36 284.76,-7.69 285.21,-5.87 285.67,-4.04 285.67,-2.16 285.67,-0.28 285.23,1.53 284.78,3.36 283.91,5.03 283.04,6.70 281.79,8.10 280.55,9.51 279.00,10.59 277.46,11.66 275.70,12.33 273.94,13.00 272.07,13.23 270.21,13.45 268.89,13.44 267.58,13.43 271.20,10.84 274.82,8.26 274.01,-3.56 273.21,-15.38 274.72,-14.27 276.23,-13.16 277.44,-11.72 278.64,-10.27 279.46,-8.59 280.28,-6.90 280.68,-5.06 281.07,-3.23 281.02,-1.35 280.96,0.51 280.46,2.32 279.96,4.13 279.04,5.77 278.12,7.40 276.83,8.77 275.54,10.14 273.97,11.16 272.39,12.18 270.62,12.79 268.84,13.41 266.97,13.58 265.10,13.75 263.25,13.47 261.39,13.19 259.66,12.47 257.92,11.75 254.74,7.58 251.55,3.41 246.98,0.12 242.40,-3.17 240.32,-7.68 238.24,-12.19 235.33,-18.28 232.42,-24.37 235.16,-20.92 237.91,-17.47 232.02,-21.79 226.14,-26.11 222.71,-28.84 219.27,-31.57 215.23,-33.13 211.19,-34.69 206.65,-36.19 202.11,-37.69 197.45,-39.35 192.78,-41.02 187.59,-42.24 182.40,-43.46 178.24,-45.70 174.08,-47.94 169.36,-50.02 164.64,-52.11 160.23,-52.62 155.82,-53.14 149.41,-53.29 143.01,-53.43 138.60,-54.55 134.19,-55.66 129.73,-56.38 125.26,-57.09 120.59,-58.01 115.91,-58.93 111.05,-59.79 106.19,-60.65 101.65,-60.59 97.11,-60.53 90.56,-58.85 84.00,-57.18 79.31,-54.96 74.62,-52.73 70.08,-49.18 65.55,-45.63 62.32,-42.44 59.10,-39.25 54.82,-34.53 50.54,-29.81 44.14,-22.07 37.74,-14.33 35.96,-19.73 34.17,-25.12 26.45,-26.51 18.73,-27.90 22.28,-31.26 25.83,-34.63 29.82,-38.21 33.81,-41.78 40.56,-43.43 47.30,-45.07 51.79,-45.45 56.27,-45.83 51.72,-44.74 47.17,-43.65 48.40,-44.62 49.62,-45.59 51.04,-46.23 52.47,-46.88 54.00,-47.17 55.54,-47.45 57.10,-47.36 58.66,-47.27 60.15,-46.81 61.64,-46.35 62.98,-45.55 64.32,-44.75 65.43,-43.65 66.54,-42.55 67.35,-41.21 68.16,-39.88 68.63,-38.39 69.10,-36.90 69.20,-35.34 69.30,-33.78 69.02,-32.24 68.75,-30.71 68.11,-29.28 67.47,-27.85 66.51,-26.62 65.56,-25.39 63.13,-23.50 60.70,-21.61 55.31,-18.80 49.92,-15.99 44.88,-12.75 39.83,-9.52 34.38,-5.51 28.92,-1.50 23.83,0.78 18.74,3.07 14.59,4.79 10.45,6.52 7.49,7.80 4.53,9.07 3.38,9.48 2.23,9.89 1.01,10.02 -0.19,10.14 -1.41,9.97 -2.62,9.80 -3.75,9.34 -4.89,8.89 -5.88,8.17 -6.87,7.46 -7.67,6.53 -8.46,5.59 -9.01,4.50 -9.55,3.41 -9.82,2.21 -10.09,1.02 -10.07,-0.19 -10.04,-1.42 -9.73,-2.60 -9.41,-3.78 -8.82,-4.85 -8.23,-5.92 -7.40,-6.82 -6.57,-7.72 -5.55,-8.40 -4.53,-9.07 -4.53,-9.07 L -4.53,-9.07 Z"></path></g></svg>